<?xml version="1.0" encoding="UTF-8" standalone="no"?>
<svg
   version="1.0"
   width="512.000000pt"
   height="512.000000pt"
   viewBox="0 0 512.000000 512.000000"
   preserveAspectRatio="xMidYMid meet"
   id="svg28"
   sodipodi:docname="llama-logo-cute-closeup.svg"
   inkscape:export-filename="../github/llama.cpp-service-tray/llama_service.png"
   inkscape:export-xdpi="6.75"
   inkscape:export-ydpi="6.75"
   inkscape:version="1.4 (e7c3feb100, 2024-10-09)"
   xmlns:inkscape="http://www.inkscape.org/namespaces/inkscape"
   xmlns:sodipodi="http://sodipodi.sourceforge.net/DTD/sodipodi-0.dtd"
   xmlns="http://www.w3.org/2000/svg"
   xmlns:svg="http://www.w3.org/2000/svg">
  <defs
     id="defs28" />
  <sodipodi:namedview
     id="namedview28"
     pagecolor="#505050"
     bordercolor="#eeeeee"
     borderopacity="1"
     inkscape:showpageshadow="0"
     inkscape:pageopacity="0"
     inkscape:pagecheckerboard="0"
     inkscape:deskcolor="#505050"
     inkscape:document-units="pt"
     inkscape:zoom="1.2036007"
     inkscape:cx="318.62727"
     inkscape:cy="344.79874"
     inkscape:window-width="2520"
     inkscape:window-height="1370"
     inkscape:window-x="26"
     inkscape:window-y="23"
     inkscape:window-maximized="0"
     inkscape:current-layer="g28" />
  <metadata
     id="metadata1">
Created by potrace 1.16, written by Peter Selinger 2001-2019
</metadata>
  <g
     transform="translate(0.000000,512.000000) scale(0.100000,-0.100000)"
     fill="#000000"
     stroke="none"
     id="g28">
    <path
       d="m 3942.504,5053.1401 c -284.7622,-68.5088 -609.2185,-326.2873 -740.3816,-585.227 -44.8717,-89.4096 -62.1299,-92.8931 -191.5673,-37.1572 -58.6783,26.7068 -158.7765,59.2194 -222.6323,73.1533 -63.8557,12.7728 -150.1473,37.1573 -191.5672,52.2524 -41.42,15.0951 -79.3883,26.7069 -82.84,24.3845 -1.7258,-2.3224 6.9034,-30.1903 20.7101,-61.5417 31.0649,-68.5087 32.7907,-132.3728 6.9033,-171.8523 l -20.71,-29.0292 -94.9207,37.1572 c -129.4374,48.7689 -322.7305,58.0583 -478.0553,20.901 -55.2266,-13.934 -105.2757,-24.3844 -107.0015,-24.3844 -3.4517,0 -18.9841,22.0621 -34.5167,49.9301 -107.0015,183.4639 -467.7002,609.6113 -543.6369,639.8016 -48.3232,19.7397 -86.2915,-4.6447 -131.1631,-78.9592 -134.61476,-226.4271 -158.77646,-552.7142 -55.2266,-775.6578 29.3392,-62.7029 29.3392,-67.3476 3.4517,-52.2525 -60.4041,33.6739 -77.6624,35.9961 -53.5008,6.967 37.9683,-51.0912 148.4215,-155.596 186.3897,-177.6581 43.1458,-26.7068 46.5975,-56.8971 8.6293,-77.7981 -24.1617,-13.934 -24.1617,-16.2562 0,-27.8679 22.4357,-11.6116 0,-25.5456 -132.8891,-84.765 -88.01726,-39.4796 -177.76056,-81.2816 -201.92216,-94.0543 l -43.14583,-24.3844 H 975.80004 1108.689 l -17.2584,-33.6738 c -27.6132,-52.2525 -181.21216,-159.0795 -274.40706,-190.431 -46.59744,-15.0952 -79.38823,-31.3514 -74.21074,-35.9962 18.98414,-12.7727 119.08234,-6.9669 195.01884,10.4506 96.64656,23.2232 93.19496,23.2232 81.11416,-24.3845 -8.6292,-37.1572 -5.1775,-42.963 41.4199,-55.7359 l 51.775,-15.0951 -70.7592,-20.9009 c -81.11396,-24.3845 -113.90476,-47.6079 -51.77486,-37.1573 22.43586,3.4834 74.21076,4.6446 113.90486,0 58.6783,-4.6447 74.2108,-11.6117 81.1141,-33.6738 3.4516,-16.2563 0,-24.3845 -10.355,-19.7398 -29.3392,12.7728 0,-75.4757 37.9682,-111.4718 l 34.5167,-32.5127 -55.2266,-34.8348 C 1105.2374,2965.3663 920.57344,2884.0848 749.71612,2824.8655 578.85883,2765.646 523.63223,2723.8441 523.63223,2655.3354 c 0,-39.4796 55.2266,-114.9552 82.8399,-114.9552 8.62916,0 5.17749,-27.868 -8.62916,-60.3806 -50.04911,-124.2446 1.72584,-284.4853 103.54988,-321.6426 32.79079,-11.6116 44.87161,-26.7067 51.77494,-67.3475 13.80665,-84.765 141.51815,-173.0135 295.11711,-203.2038 39.6941,-6.967 169.1315,-13.934 291.6655,-13.934 188.1156,-1.1612 217.4548,-3.4834 208.8256,-18.5786 -32.7908,-55.7359 -125.9857,-257.7785 -138.0665,-297.2581 l -12.0808,-45.2854 37.9683,23.2233 39.694,23.2233 -15.5324,-46.4466 c -6.9033,-25.5456 -12.0808,-149.7902 -8.6292,-276.3572 5.1775,-255.45619 -5.1775,-301.90274 -84.5657,-362.2833 -65.5816,-49.93006 -44.8717,-52.25239 50.0491,-6.96697 l 69.0332,34.83492 10.3551,-29.02911 c 15.5324,-38.31842 -17.2584,-153.2737 -60.4041,-220.62124 -44.8717,-71.9922 -43.1458,-74.31452 36.2424,-22.06213 37.9683,24.38446 72.485,42.96309 75.9366,39.4796 3.4517,-2.32234 -3.4516,-24.38446 -15.5325,-48.76892 -22.4358,-42.96307 -72.4849,-76.63685 -170.8573,-116.11644 l -53.5008,-20.90096 69.0332,6.96698 c 36.2425,4.64467 89.7433,15.09515 115.6308,24.38446 48.3232,17.41747 50.0491,17.41747 37.9682,-15.09514 -43.1457,-127.72808 -84.5657,-196.23679 -150.1472,-243.84453 -41.42,-30.19028 -29.3392,-33.67377 36.2424,-10.45048 63.8557,22.06213 148.4215,84.765 189.8415,140.5009 34.5165,44.12425 36.2424,45.28541 37.9682,13.93397 0,-17.41746 -12.0808,-49.93007 -24.1616,-71.9922 -13.8066,-22.06212 -18.9841,-40.64075 -10.355,-40.64075 22.4358,0 107.0016,71.99219 125.9857,107.98829 32.7908,65.02521 27.6133,20.90097 -12.0808,-111.47179 -32.7909,-101.0213 -55.2266,-149.79021 -94.9208,-188.108636 -29.339,-29.029111 -48.3233,-52.252392 -43.1458,-52.252392 6.9033,0 63.8558,18.578626 131.1633,42.963083 215.7289,76.636855 345.1662,174.174665 377.957,287.968775 15.5325,53.41357 1.7259,168.36885 -20.71,168.36885 -8.6291,0 -15.5325,-9.28932 -15.5325,-19.7398 0,-35.9961 -101.824,-168.36884 -201.9223,-261.262 -53.5007,-49.93007 -98.3724,-90.57083 -101.824,-90.57083 -1.7258,0 22.4359,39.4796 55.2266,85.92618 32.7908,47.60774 75.9366,128.88925 96.6466,181.14165 l 36.2425,92.89316 131.1631,70.83102 c 163.954,87.08734 226.0839,146.30673 226.0839,215.97659 0,26.70678 -6.9033,49.93008 -17.2583,49.93008 -8.6291,0 -17.2583,-9.28932 -17.2583,-22.06213 0,-71.99219 -155.3248,-199.72029 -317.553,-260.10083 l -82.8399,-31.35145 62.13,46.44658 c 91.469,68.50871 127.7115,126.56693 167.4056,263.58433 20.71,69.66987 55.2266,148.62911 75.9366,177.65811 l 39.6941,52.2525 12.0808,-34.835 c 34.5167,-102.18241 70.7591,-153.27369 158.7765,-222.94356 136.3406,-106.82712 144.9698,-120.76109 113.9049,-181.14165 -41.42,-82.44268 -127.7115,-160.24069 -238.1647,-214.81542 -120.8083,-60.38055 -65.5817,-56.89706 70.759,4.64466 93.195,42.96308 153.599,103.34363 188.1156,189.2698 l 22.4359,53.41357 27.6132,-42.96309 c 22.4359,-34.83493 24.1617,-56.89706 10.355,-127.72809 -24.1616,-126.56692 -20.7099,-128.88925 36.2425,-20.90096 67.3074,124.24459 69.0332,188.10864 10.3549,359.96099 -24.1615,73.15339 -53.5007,175.33585 -62.1299,226.42715 l -17.2582,92.8931 6.9033,-110.3107 c 3.4516,-60.3805 22.4357,-154.43483 41.4199,-209.00955 20.71,-54.57473 36.2424,-121.92227 34.5166,-150.95139 v -52.2524 l -24.1616,42.96308 c -13.8066,24.38446 -51.7749,77.79803 -88.0174,120.76111 -34.5166,41.80192 -77.6624,105.66597 -96.6466,141.66201 l -32.7907,66.18644 8.6291,-52.25246 c 5.1775,-29.02903 13.8066,-62.70284 20.7099,-75.47564 8.6293,-15.09514 6.9035,-18.57863 -8.6291,-11.61164 -41.42,16.25629 -105.2757,126.56694 -105.2757,179.98044 0,51.0913 3.4516,54.5748 167.4056,161.402 112.179,71.9921 138.0666,91.7319 74.2108,58.0581 -51.7749,-27.8679 -127.7116,-70.8309 -169.1314,-97.5378 l -74.2108,-46.4466 25.8875,40.6408 c 32.7907,55.7359 48.3233,170.6912 29.3391,220.6212 l -15.5325,40.6408 -1.7258,-41.8018 c -3.4517,-74.3146 -51.775,-154.4349 -158.7765,-260.101 l -105.2757,-104.5048 8.6291,81.2815 c 6.9033,67.3476 22.4359,98.699 96.6466,197.398 48.3233,63.8641 96.6466,142.8232 107.0015,174.1747 31.065,91.7321 113.9049,198.5591 215.7289,279.8406 103.5499,82.4427 117.3566,99.8602 46.5975,62.7029 -136.3407,-70.8311 -248.5197,-198.5591 -296.843,-335.5765 -22.4358,-66.1864 -50.0491,-110.3106 -96.6465,-153.2737 -108.7274,-102.1825 -132.8891,-150.9514 -132.8891,-264.7456 v -99.86005 l -32.7907,46.44655 c -53.5008,77.798 -43.1458,198.5591 27.6132,325.1261 31.065,58.0582 46.5975,94.0543 32.7909,81.2815 -51.775,-45.2854 -127.7116,-155.596 -138.0666,-202.0427 -18.9841,-81.2815 -48.3233,-71.9921 -37.9682,12.7729 12.0808,92.8931 53.5007,156.7572 195.0189,300.7416 151.8732,152.1125 262.3264,231.0717 429.732,305.3862 117.3565,51.0913 198.4705,77.7981 448.7161,145.1456 8.6292,2.3224 -32.7908,-26.7068 -94.9207,-66.1864 -62.1299,-38.3184 -134.6148,-98.6989 -163.954,-132.3727 -44.8715,-55.7359 -50.0491,-71.9922 -50.0491,-166.0465 0,-110.3106 31.065,-170.6913 108.7273,-218.299 31.0651,-18.5786 29.3392,-15.0951 -8.6291,34.8349 -55.2266,71.9923 -48.3233,168.3689 18.9842,260.1009 l 44.8715,62.7028 -44.8715,-34.8348 c -24.1617,-18.5787 -50.0491,-45.2855 -58.6782,-58.0583 -13.8068,-20.9009 -15.5326,-20.9009 -15.5326,5.8058 -1.7258,39.4796 69.0332,138.1786 134.6149,189.2699 81.114,61.5417 277.8588,155.596 346.8921,164.8853 205.3739,27.868 498.7652,168.3689 623.025,297.2581 131.1633,139.3398 182.9382,330.9319 134.6149,509.7512 l -24.1617,87.0874 -10.3549,-156.7573 c -8.6292,-109.1494 -22.4358,-179.9805 -48.3233,-232.2328 -79.3882,-169.5301 -298.5688,-320.4815 -543.6369,-375.0562 -105.2757,-24.3844 -153.5989,-24.3844 -217.4547,-2.3223 -65.5816,23.2233 -88.0174,52.2524 -75.9366,101.0213 l 10.355,38.3184 -46.5975,-49.9301 c -36.2424,-39.4796 -44.8715,-60.3805 -37.9682,-90.5707 8.6291,-37.1573 6.9033,-39.4797 -53.5008,-51.0913 -34.5166,-6.967 -101.824,-15.0952 -150.1473,-18.5786 -72.4849,-4.6447 -79.3882,-3.4835 -43.1458,6.967 105.2757,31.3514 201.9223,83.6038 241.6164,130.0504 l 39.6941,49.9301 -70.7591,-53.4137 c -117.3565,-88.2484 -203.6481,-104.5048 -704.1392,-138.1785 -105.2757,-6.967 -219.1805,-17.4174 -253.6971,-23.2233 -41.42,-5.8058 -60.4041,-4.6447 -53.5008,2.3223 18.9841,19.7398 184.6639,66.1864 265.778,74.3146 108.7273,11.6116 39.6941,29.029 -77.6624,19.7398 -117.3565,-9.2894 -220.9064,-46.4467 -353.7954,-127.7281 -144.9699,-89.4097 -165.6798,-96.3767 -296.843,-95.2155 h -108.7274 l 93.1949,24.3844 c 72.4849,18.5787 122.534,44.1243 224.3581,117.2777 331.3596,238.0387 305.4722,224.1047 459.0711,239.1998 141.5182,13.934 343.4405,47.6078 331.3596,55.7359 -3.4517,2.3224 -103.5498,-4.6446 -220.9064,-13.9339 -117.3565,-10.4506 -229.5356,-17.4176 -251.9713,-13.934 -22.4359,2.3224 -39.6942,-1.1612 -39.6942,-8.1282 0,-8.1281 -88.0174,-71.9922 -195.0189,-143.9844 -229.5356,-152.1125 -293.3914,-176.497 -469.4261,-175.3358 -193.2932,0 -433.18365,41.8019 -352.06956,62.7029 13.8067,2.3223 79.3882,12.7728 146.69556,22.0621 67.3074,9.2894 165.6798,27.868 219.1806,41.8019 96.6466,24.3844 491.8619,185.7863 588.5085,240.3611 122.534,69.6698 82.8398,65.0252 -115.6307,-11.6117 -324.4563,-125.4057 -484.9586,-173.0135 -605.7668,-178.8193 -93.1949,-5.8058 -108.7273,-3.4835 -139.79236,19.7398 -25.8874,19.7398 -32.7907,39.4796 -31.0649,82.4427 5.1775,70.831 51.77496,133.5339 143.24396,189.2698 86.2916,52.2524 165.6798,76.6369 250.2456,76.6369 46.5974,0 75.9365,9.2892 113.9048,33.6737 27.6133,18.5786 50.0491,42.963 50.0491,53.4136 0,30.1903 -48.3233,84.765 -88.0174,99.8601 -36.2424,12.7729 -36.2424,11.6117 -8.6291,-13.934 15.5324,-15.0951 27.6133,-35.996 27.6133,-47.6077 0,-22.0621 -63.8558,-55.7359 -103.5499,-54.5748 -18.9842,0 -15.5325,5.8058 13.8066,18.5787 77.6624,35.9961 27.6133,73.1534 -100.0982,73.1534 -88.0173,0 -165.6798,-23.2234 -239.8905,-71.9923 -29.33916,-19.7398 -53.50076,-29.029 -53.50076,-23.2232 0,24.3844 112.17906,98.6989 181.21226,120.761 l 69.0332,22.0622 -56.9524,-5.8058 c -122.534,-13.934 -241.61636,-96.3767 -272.68136,-186.9475 l -10.3549,-34.8349 -22.43583,49.9301 c -29.33912,65.0251 -67.30741,103.3436 -131.16317,128.8892 -37.96829,16.2563 -44.87162,23.2233 -29.33913,32.5125 25.88747,13.934 255.42293,84.7651 255.42293,80.1205 0,-2.3224 -31.0649,-18.5786 -70.759,-34.835 -37.96828,-17.4175 -65.58158,-34.8349 -60.40409,-38.3185 25.88748,-17.4174 110.45319,17.4176 231.26135,92.8932 72.485,46.4466 195.019,119.6 272.6813,162.5631 174.309,96.3767 336.5371,211.3319 376.2313,268.229 48.3232,68.5087 22.4358,73.1533 -48.3233,9.2892 -36.2424,-33.6737 -75.9366,-60.3805 -88.0174,-60.3805 -12.0809,0 -31.065,17.4175 -43.1458,39.4796 -25.8875,53.4136 -120.8081,140.5009 -189.8415,175.3358 -31.0649,16.2564 -93.1948,37.1573 -136.3406,48.7689 -43.1458,10.4506 -82.8399,20.901 -84.5658,22.0622 -15.5324,8.1282 94.9208,120.761 117.3566,120.761 48.3232,-1.161 163.9539,-42.963 219.1806,-80.1203 56.9525,-37.1573 91.469,-96.3766 91.469,-154.4349 0,-44.1242 29.3392,-90.5708 56.9524,-90.5708 12.0808,0 41.42,26.7069 65.5816,60.3806 62.13,88.2485 208.8256,152.1126 267.5039,114.9553 8.6291,-5.8058 29.3392,9.2893 51.7749,40.6407 32.7909,47.6077 34.5167,48.7689 1.7259,38.3185 -17.2583,-6.967 -70.7591,-19.7399 -119.0824,-30.1903 -63.8557,-11.6116 -110.4532,-32.5126 -170.8573,-74.3145 l -82.8399,-58.0583 -10.355,32.5126 c -31.0649,98.699 -51.7749,132.3727 -101.8241,164.8854 -63.8557,40.6408 -181.2122,77.798 -283.0363,89.4097 -39.694,4.6446 -75.9365,11.6116 -81.114,16.2562 -12.0808,12.7728 307.1979,149.7903 393.4895,169.5301 105.2757,24.3844 174.309,18.5786 181.2123,-15.0952 3.4516,-15.0951 6.9033,-26.7068 8.6291,-26.7068 1.7258,0 41.42,8.1282 88.0175,17.4175 46.5974,9.2893 88.0174,15.0951 91.469,13.9339 3.4517,-2.3222 -6.9033,-24.3844 -20.71,-47.6077 -22.4358,-35.9961 -24.1616,-54.5747 -8.6291,-106.8271 l 18.9841,-62.7028 86.2916,48.7689 c 94.9207,54.5747 100.0982,70.8309 8.6291,32.5125 l -62.1299,-25.5455 v 39.4795 c 0,26.7068 12.0808,47.6077 39.6942,62.7029 56.9524,34.8349 134.6148,65.0251 144.9697,58.0582 5.1776,-3.4835 13.8067,-45.2854 18.9842,-94.0543 l 8.6292,-87.0873 48.3233,24.3844 c 77.6623,37.1573 264.0522,90.5708 383.1345,109.1494 155.3248,24.3845 426.2804,22.0622 588.5084,-5.8058 298.5689,-51.0911 500.4912,-160.2407 600.5893,-323.9648 l 32.7908,-53.4136 -8.6291,48.7689 c -24.1617,164.8854 -279.5847,314.6755 -657.5417,386.6678 -222.6323,42.9631 -557.4435,19.7398 -769.7208,-52.2525 l -84.5658,-27.8679 -12.0808,31.3515 c -8.6291,17.4174 -13.8066,62.7029 -13.8066,101.0212 0,92.8932 69.0332,176.4971 208.8256,253.134 196.7447,107.9882 326.1821,145.1455 386.5862,110.3106 13.8067,-8.1282 10.355,-2.3224 -8.6291,12.7728 -29.3392,23.2233 -46.5975,25.5456 -115.6308,22.0621 l -81.114,-5.8058 10.3549,59.2193 c 5.1775,32.5126 13.8067,61.5418 17.2583,63.8641 12.0809,10.4504 157.0507,-44.1243 222.6324,-82.4427 l 65.5815,-38.3184 -36.2425,34.8349 c -20.7099,19.7398 -88.0174,55.7359 -150.1473,80.1204 -62.1299,24.3844 -113.9049,46.4466 -113.9049,48.7689 0,10.4505 231.2614,-42.9631 295.1172,-68.5088 138.0665,-55.7359 151.8731,-67.3475 172.5832,-141.662 25.8874,-91.732 39.694,-104.5048 50.0491,-40.6407 l 8.6291,51.0911 153.599,-103.3436 c 82.8399,-58.0581 210.5514,-156.7572 279.5847,-220.6212 158.7765,-143.9844 246.7938,-214.8155 265.7779,-214.8155 8.6293,0 -1.7258,20.901 -22.4357,46.4467 -43.1458,53.4135 -58.6783,30.1902 150.1473,238.0387 129.4373,128.8893 219.1806,256.6173 215.7289,311.192 0,16.2564 -8.6291,6.967 -22.4358,-23.2232 -44.8717,-94.0544 -186.3898,-248.4893 -336.5371,-363.4445 -94.9208,-73.1533 -55.2266,-19.7398 69.0332,92.8932 134.6149,121.9222 200.1965,206.6872 260.6005,336.7376 51.775,113.7941 55.2266,322.8037 6.9034,450.5319 -17.2583,46.4465 -37.9683,83.6038 -46.5975,81.2814 -25.8874,-5.8058 -324.4562,-207.8484 -364.1503,-246.1668 -29.3392,-26.7067 -10.355,-19.7398 67.3074,27.868 134.6149,81.2815 212.2772,113.794 212.2772,88.2484 0,-10.4505 -10.355,-15.0951 -24.1617,-11.6116 -31.0649,8.1281 -144.9697,-83.6038 -236.4388,-189.2698 -94.9208,-112.633 -162.2282,-249.6504 -195.0189,-398.2795 -13.8067,-65.0251 -29.3392,-120.761 -32.7908,-123.0834 -3.4517,-2.3223 -22.4358,5.8058 -43.1459,18.5787 -31.0649,19.7398 -37.9682,37.1572 -37.9682,95.2155 0,80.1203 -12.0809,83.6038 -32.7908,8.1281 l -13.8066,-51.0912 -22.4359,52.2523 c -13.8066,34.835 -18.9841,91.732 -12.0808,168.3689 6.9033,87.0874 5.1775,105.666 -8.6291,75.4757 -8.6292,-22.0622 -13.8067,-88.2485 -10.355,-147.4678 l 5.1775,-107.9884 -77.6625,52.2525 -75.9365,51.0911 20.7099,83.6039 c 41.42,160.2407 181.2124,342.5436 369.3279,479.5609 108.7274,80.1203 279.5847,168.3688 300.2947,154.4348 5.1775,-2.3222 -18.9842,-16.2562 -51.7749,-30.1902 -79.3883,-33.6737 -203.6481,-127.7281 -267.5039,-202.0426 -98.3724,-117.2776 -158.7765,-294.9357 -129.4374,-382.0231 10.3551,-33.6738 15.5326,-26.7068 34.5167,61.5417 43.1458,196.2368 131.1631,322.8038 314.1013,452.8542 189.8414,135.8562 284.7621,157.9183 360.6987,82.4426 77.6625,-78.9592 129.4374,-335.5764 107.0015,-539.9414 -18.9841,-163.7242 -89.7431,-285.6465 -289.9396,-494.6561 -119.0823,-124.2445 -134.6148,-157.9184 -39.6941,-85.9262 l 63.8557,48.7689 -3.4517,-153.2737 c -3.4516,-116.1164 0,-146.3067 13.8068,-124.2446 10.3549,16.2564 22.4357,65.0253 27.6132,107.9883 10.355,82.4428 39.6942,99.8602 50.0491,31.3515 3.4517,-22.0622 15.5325,-68.5087 24.1616,-103.3437 22.4359,-83.6038 22.4359,-174.1746 -1.7258,-220.6212 -20.7099,-40.6407 -50.049,-47.6077 -50.049,-11.6117 0,41.8019 -113.905,189.2698 -179.4865,231.0718 l -63.8558,40.6407 69.0332,-92.8931 c 36.2425,-51.0913 81.1142,-128.8893 96.6466,-174.1747 46.5975,-135.8563 43.1458,-131.2116 77.6625,-88.2485 l 29.3391,38.3184 39.6941,-61.5417 c 48.3233,-76.6368 86.2915,-168.3689 84.5657,-207.8484 0,-23.2233 -5.1775,-19.7398 -25.8874,17.4174 -24.1617,46.4466 -22.4359,35.9961 8.6291,-69.6699 8.6291,-32.5126 22.4358,-89.4096 29.3392,-127.728 l 12.0808,-69.6699 22.4357,46.4466 c 50.0492,106.8271 20.7101,285.6464 -69.0332,418.0192 -25.8875,39.4796 -34.5166,67.3475 -25.8875,87.0873 6.9034,16.2563 12.0809,46.4467 13.8067,68.5087 l 1.7259,39.4797 43.1458,-26.7068 c 41.4198,-26.7069 43.1457,-26.7069 43.1457,-3.4836 0,19.7398 -37.9683,103.3437 -77.6624,170.6912 -13.8066,19.7399 -10.355,19.7399 39.6941,2.3223 79.3882,-27.8679 81.1141,-23.2233 20.71,31.3514 -150.1474,133.534 -179.4865,170.6913 -174.309,220.6214 1.7259,30.1902 25.8875,71.9921 63.8558,114.9552 144.9698,160.2407 207.0998,346.027 191.5672,570.1318 -13.8066,214.8153 -75.9365,378.5396 -163.954,429.6308 -48.3232,30.1903 -151.8731,34.8349 -243.3421,12.7729 z M 1291.6271,4868.5148 c 39.6942,-105.6658 129.4373,-487.689 153.599,-661.8637 l 8.6292,-69.6698 -51.775,75.4756 c -51.7749,70.8311 -138.0665,271.7126 -134.6149,312.3533 0,10.4504 18.9842,-13.934 39.6942,-54.5747 22.4358,-40.6408 46.5974,-76.6369 53.5007,-81.2815 18.9843,-12.7729 -8.6291,53.4135 -70.759,170.6911 -69.0332,128.8893 -74.2107,156.7572 -15.5325,76.6369 l 43.1457,-58.0583 -10.3549,66.1865 c -5.1775,37.1572 -27.6133,123.0834 -51.775,191.5921 -22.4357,68.5087 -41.4199,134.6951 -41.4199,147.4679 0,48.7689 34.5166,-2.3224 77.6624,-114.9554 z m 107.0016,-19.7397 c 62.1299,-65.0252 402.1186,-520.2017 402.1186,-537.6191 0,-2.3224 -44.8716,-20.901 -98.3724,-40.6408 -55.2266,-20.901 -117.3565,-47.6077 -136.3406,-60.3806 l -37.9683,-22.0621 -10.355,38.3184 c -5.1775,20.901 -29.3391,127.7282 -55.2266,235.7164 -48.3233,215.9766 -96.6466,366.928 -134.6148,429.6309 -13.8067,22.0621 -22.4359,40.6407 -17.2584,40.6407 3.4517,0 43.1458,-38.3184 88.0175,-83.6038 z m 2754.4267,-224.1047 c 3.4516,-176.4971 -22.4359,-267.0679 -91.4691,-320.4814 l -36.2424,-27.868 25.8874,34.835 c 56.9525,81.2814 82.84,213.6542 72.4849,383.1842 -6.9033,120.7611 -3.4516,153.2737 8.6293,127.7281 10.3549,-18.5786 18.9841,-107.9883 20.7099,-197.3979 z m -134.6149,102.1824 c -5.1775,-18.5787 -58.6783,-116.1164 -115.6307,-218.2989 -105.2757,-190.431 -203.648,-422.6639 -203.648,-483.0444 0,-18.5786 -8.6293,-33.6738 -18.9842,-33.6738 -31.0649,0 -6.9033,183.464 36.2425,296.0969 20.7099,49.9301 69.0332,141.6621 107.0015,203.2038 65.5816,104.5049 188.1156,267.0678 201.9223,267.0678 3.4517,0 0,-13.9339 -6.9034,-31.3514 z m -2913.2031,-5.8058 c -5.1776,-9.2893 -10.3551,-5.8059 -10.3551,6.967 -1.7258,12.7728 3.4517,19.7398 8.6292,15.0951 5.1775,-3.4835 6.9034,-13.934 1.7259,-22.0621 z m -17.2584,-110.3106 c -3.4517,-18.5787 -6.9033,-5.8059 -6.9033,25.5456 0,32.5126 3.4516,46.4465 6.9033,32.5126 3.4516,-15.0952 3.4516,-40.6408 0,-58.0582 z m 69.0332,-168.3689 c -1.7258,-46.4465 -5.1775,-11.6116 -5.1775,77.7981 0,89.4096 1.7259,127.728 5.1775,84.7649 3.4518,-42.963 3.4518,-116.1164 0,-162.563 z m -58.6782,13.934 c 10.355,-95.2155 75.9366,-261.262 143.244,-358.7998 51.7749,-77.798 41.42,-89.4097 -18.9841,-24.3845 -56.9524,60.3806 -89.7433,120.7611 -120.8083,220.6212 -27.6132,95.2156 -50.049,291.4523 -29.3391,267.0679 8.6292,-9.2893 20.71,-56.8971 25.8875,-104.5048 z m 1263.3085,-126.5669 c 46.5974,-13.934 98.3724,-33.6738 115.6308,-42.9632 27.6132,-17.4174 20.7099,-23.2232 -86.2917,-81.2814 -63.8557,-34.835 -132.8889,-62.7029 -155.3248,-62.7029 -74.2107,0 -241.6163,-76.6369 -312.3755,-143.9844 -32.7907,-30.1903 -5.1775,-18.5786 101.8241,40.6407 81.1141,44.1243 208.8256,95.2155 220.9064,85.9263 3.4516,-2.3224 -5.1775,-18.5787 -20.71,-37.1573 -15.5324,-17.4175 -34.5166,-46.4466 -43.1458,-62.7029 -13.8066,-26.7068 -31.0649,-32.5126 -119.0823,-42.9631 -56.9524,-6.967 -143.244,-25.5456 -191.5673,-41.802 -48.3232,-16.2562 -91.469,-30.1902 -96.6465,-30.1902 -22.4359,0 -5.1775,25.5456 44.8716,62.7029 l 51.7749,40.6408 -65.5816,-16.2564 c -36.2424,-9.2892 -134.6148,-29.0291 -217.4547,-44.1242 l -151.8731,-27.8679 65.5815,45.2853 c 36.2424,24.3846 112.1791,61.5418 169.1315,81.2815 100.0982,33.6738 101.8241,34.835 34.5166,26.7068 -125.9857,-15.0951 -255.423,-71.9921 -338.2629,-148.629 -62.13,-58.0583 -65.5816,-32.5126 -5.1775,47.6077 81.1141,109.1495 327.9079,240.3611 540.1852,286.8077 103.5499,23.2232 279.5846,26.7068 352.0695,6.967 79.3883,-20.901 51.775,-1.1612 -34.5165,25.5456 -60.4041,17.4174 -117.3566,24.3844 -215.729,24.3844 -72.4848,1.1612 -129.4373,3.4835 -125.9856,5.8059 5.1775,2.3223 48.3232,11.6116 98.3723,19.7398 120.8083,20.9009 281.3106,13.9339 384.8604,-17.4175 z m -1187.3719,-15.0952 c -5.1775,-8.1281 -8.6291,-2.3223 -8.6291,13.934 0,16.2563 3.4516,22.0621 8.6291,15.0951 3.4517,-8.1281 3.4517,-22.0621 0,-29.0291 z m 31.0649,-849.9724 c 88.0174,-27.8679 150.1474,-65.0251 169.1315,-103.3436 8.6292,-15.0952 -12.0808,-8.1282 -62.1299,19.7398 -39.6941,22.0621 -110.4532,51.0913 -155.3249,63.864 -44.8715,12.7728 -81.114,29.0292 -81.114,35.9962 0,18.5786 34.5167,13.9339 129.4373,-16.2564 z m 27.6134,-130.0504 c 17.2582,-15.0951 17.2582,-19.7398 -3.4517,-29.0291 -51.7749,-22.0621 -98.3724,-3.4834 -77.6625,30.1903 12.0809,23.2233 51.775,22.0622 81.1142,-1.1612 z m 67.3074,-81.2815 c 0,-9.2893 -6.9034,-16.2563 -15.5325,-16.2563 -18.9842,0 -37.9683,30.1903 -24.1617,39.4796 15.5326,10.4505 39.6942,-3.4835 39.6942,-23.2233 z m -6.9034,-130.0504 c -12.0808,-8.1281 -74.2107,19.7398 -86.2916,38.3184 -6.9033,12.7728 5.1775,10.4506 41.42,-8.1281 27.6134,-13.934 48.3233,-26.7068 44.8716,-30.1903 z m 2952.8974,-74.3146 c -5.1776,-8.128 -8.6292,-2.3222 -8.6292,13.934 0,16.2564 3.4516,22.0622 8.6292,15.0952 3.4517,-8.1282 3.4517,-22.0622 0,-29.0292 z M 787.68441,2439.3588 c 79.38823,-76.6368 84.56573,-212.4931 10.35499,-212.4931 -50.0491,0 -100.09821,83.6039 -113.90487,191.5921 -10.35498,87.0874 -10.35498,89.4098 24.16165,77.7981 18.98414,-6.967 53.50076,-32.5126 79.38823,-56.8971 z m 1529.08649,-621.223 c -184.664,-87.0873 -409.022,-242.6834 -478.0553,-334.4153 l -58.6782,-75.4757 12.0808,52.2524 c 13.8066,59.2193 79.3882,154.4349 134.6148,197.3979 70.7591,53.4137 193.2931,113.7942 339.9888,167.2077 81.114,29.0291 153.5989,53.4137 162.2282,53.4137 10.3549,0 -41.42,-26.7069 -112.1791,-60.3807 z m -222.6322,32.5127 c 0,-2.3224 -32.7908,-17.4175 -72.485,-33.6739 -41.42,-16.2562 -108.7274,-51.0911 -150.1473,-78.9591 -41.4199,-26.7067 -67.3074,-38.3185 -56.9525,-26.7067 46.5975,56.8969 279.5848,173.0135 279.5848,139.3397 z m -338.263,-123.0835 c -24.1616,-44.1242 -50.0491,-118.4388 -58.6783,-164.8853 -15.5324,-87.0873 0,-271.7126 34.5167,-392.4736 32.7908,-113.7942 -27.6134,-311.19213 -122.534,-400.60179 -20.71,-18.57864 -31.065,-24.38445 -24.1617,-11.61165 81.1141,147.46789 108.7274,346.02704 70.7592,521.36284 -36.2425,166.0465 -34.5167,228.7494 6.9033,337.8989 29.339,76.6368 107.0015,191.5922 127.7115,191.5922 3.4516,0 -12.0808,-35.9961 -34.5167,-81.2816 z M 1949.1688,768.44314 C 1933.6364,727.80239 1814.5539,633.74807 1721.3591,589.62382 l -84.5658,-39.47959 91.4691,67.34753 c 105.2758,77.79802 163.954,142.82323 196.7447,215.97659 l 22.4359,52.25241 5.1775,-45.28542 c 3.4517,-25.54562 1.7258,-56.89706 -3.4517,-71.9922 z"
       id="path1"
       style="fill:#7fff2a;stroke-width:1.41562" />
    <path
       d="m 1861.1514,4196.2006 c -70.759,-15.095 -215.7289,-61.5417 -215.7289,-69.6698 0,-2.3223 48.3233,8.1281 105.2757,24.3844 58.6783,16.2564 153.599,35.9962 212.2773,44.1243 94.9207,13.934 98.3724,15.0951 36.2425,16.2563 -37.9684,0 -100.0983,-6.967 -138.0666,-15.0952 z"
       id="path2"
       style="fill:#7fff2a;stroke-width:1.41562" />
    <path
       d="m 4147.8779,4956.7634 c 0,-6.967 6.9033,-15.0951 17.2583,-18.5787 10.355,-3.4834 12.0808,1.1612 6.9033,10.4506 -12.0808,20.9009 -24.1616,24.3844 -24.1616,8.1281 z"
       id="path3"
       style="fill:#7fff2a;stroke-width:1.41562" />
    <path
       d="m 2627.4205,4172.9774 c -125.9857,-30.1903 -236.4389,-99.8602 -291.6655,-183.4641 -36.2424,-56.8969 -65.5815,-160.2406 -43.1458,-160.2406 6.9034,0 39.6942,16.2563 72.4849,34.8349 67.3075,39.4796 51.775,47.6078 -20.7099,9.2893 l -46.5975,-24.3844 12.0808,27.868 c 50.0491,113.794 132.8891,195.0755 248.5198,243.8444 165.6798,70.8311 308.9238,71.9923 446.9903,2.3224 l 81.1141,-41.8019 -51.775,38.3184 c -27.6133,19.7398 -72.4849,44.1242 -98.3724,53.4136 -56.9524,19.7398 -226.0838,20.9009 -308.9238,0 z"
       id="path4"
       style="fill:#7fff2a;stroke-width:1.41562" />
    <path
       d="m 3146.8958,4075.4396 c 0,-13.934 17.2583,-54.5748 36.2424,-90.5709 44.8716,-80.1203 148.4215,-154.4349 277.8588,-196.2368 l 91.4691,-29.029 -69.0332,37.1572 c -131.1633,71.9922 -215.729,140.5009 -276.133,221.7824 -34.5167,46.4465 -60.4041,70.831 -60.4041,56.8971 z"
       id="path5"
       style="fill:#7fff2a;stroke-width:1.41562" />
    <path
       d="m 2755.1321,4062.6668 c -108.7274,-24.3845 -219.1806,-74.3145 -274.4072,-124.2446 -67.3075,-58.0583 -48.3233,-56.8971 69.0332,5.8058 189.8414,102.1824 357.2471,138.1785 483.2328,105.666 60.4041,-15.0952 56.9524,-4.6448 -6.9034,17.4174 -65.5816,23.2233 -160.5022,22.0621 -270.9554,-4.6446 z"
       id="path6"
       style="fill:#7fff2a;stroke-width:1.41562" />
    <path
       d="m 2844.8753,4002.2862 c -48.3233,-22.0621 -48.3233,-23.2233 -8.6292,-15.0951 24.1616,4.6446 89.7433,15.0951 146.6957,23.2232 l 103.5499,13.934 -94.9208,1.1612 c -69.0332,1.1611 -108.7273,-5.8058 -146.6956,-23.2233 z"
       id="path7"
       style="fill:#7fff2a;stroke-width:1.41562" />
    <path
       d="m 2969.1351,3643.4863 c -186.3898,-22.062 -410.7478,-131.2115 -484.9585,-236.8774 -37.9684,-53.4137 -67.3075,-37.1573 -50.0491,27.8679 13.8066,59.2194 51.7749,103.3436 132.8889,161.4018 86.2916,61.5417 24.1617,45.2855 -69.0332,-18.5786 -84.5658,-55.7359 -132.8891,-133.5339 -134.6149,-210.1708 -1.7258,-48.7689 5.1776,-66.1863 31.065,-78.9591 53.5008,-25.5457 81.114,-19.7398 174.3089,31.3514 239.8907,134.6951 533.2819,170.6912 842.2057,103.3436 112.179,-24.3844 196.7448,-34.8349 272.6813,-34.8349 124.26,0 184.664,15.0951 117.3565,29.0291 -22.4357,4.6446 -84.5656,33.6737 -136.3406,63.8641 -51.7749,29.0291 -125.9856,68.5087 -165.6798,84.765 -144.9698,65.0251 -364.1504,96.3766 -529.8302,77.7979 z m 405.5704,-68.5087 c 103.5499,-32.5125 302.0204,-137.0173 284.7621,-148.629 -5.1774,-2.3223 -100.0982,11.6117 -212.2772,30.1903 -312.3755,54.5748 -500.4911,47.6078 -740.3816,-26.7068 -55.2266,-16.2562 -103.5499,-30.1902 -107.0015,-30.1902 -17.2584,0 15.5324,62.7029 46.5974,89.4096 50.049,44.1242 115.6307,74.3145 222.6322,104.5048 82.8399,24.3844 117.3566,26.7068 245.068,23.2233 120.8082,-4.6447 167.4057,-11.6116 260.6006,-41.802 z"
       id="path8"
       style="fill:#7fff2a;stroke-width:1.41562" />
    <path
       d="m 3077.8625,3424.0263 c -129.4374,-26.7068 -212.2772,-77.7981 -281.3105,-170.6912 -48.3233,-63.864 -127.7115,-116.1164 -195.0189,-127.7281 -75.9367,-12.7728 -43.1458,-25.5456 77.6623,-30.1902 107.0016,-3.4836 125.9857,-8.1282 214.0031,-53.4136 117.3566,-59.2194 163.954,-71.9922 258.8748,-71.9922 134.6148,0 255.4229,76.6369 288.2138,181.1417 l 18.9841,58.0582 h 89.7432 c 113.9049,1.1611 212.2773,34.8349 295.1172,98.699 89.7432,70.831 77.6624,88.2484 -24.1616,34.8349 -96.6466,-51.0913 -176.0348,-67.3475 -241.6165,-48.7689 -24.1616,5.8058 -84.5657,34.8349 -136.3406,62.7029 -120.8082,68.5087 -246.7938,90.5708 -364.1504,67.3475 z m 219.1805,-37.1573 c 25.8876,-5.8058 79.3883,-31.3514 117.3565,-55.7358 37.9684,-24.3845 88.0175,-53.4137 112.1792,-63.8641 l 43.1457,-20.9009 -43.1457,8.1281 c -24.1617,4.6446 -74.2108,19.7398 -112.1792,32.5126 -94.9206,33.6738 -419.3769,35.9961 -503.9427,4.6446 -82.8398,-30.1902 -88.0173,-24.3844 -20.7099,22.0622 107.0015,75.4756 276.133,106.8271 407.2961,73.1533 z m -56.9524,-163.7242 c 25.8875,-27.8679 -8.6291,-48.7689 -65.5816,-39.4795 -48.3233,8.1281 -56.9524,29.0291 -24.1616,51.0911 27.6133,18.5787 65.5816,13.934 89.7432,-11.6116 z m 429.732,17.4175 c -12.0808,-2.3223 -32.7907,-2.3223 -43.1458,0 -12.0808,3.4835 -3.4517,5.8059 20.71,5.8059 24.1616,0 32.7908,-2.3224 22.4358,-5.8059 z m -610.9443,-156.7572 c 31.065,-18.5786 74.2108,-32.5126 101.8241,-32.5126 84.5657,0 179.4864,56.8971 210.5514,125.4058 13.8067,31.3514 13.8067,31.3514 15.5325,3.4834 1.7258,-35.996 -58.6783,-97.5378 -120.8082,-121.9222 -58.6782,-23.2233 -139.7924,-23.2233 -205.3739,-1.1612 -65.5816,23.2233 -86.2915,51.0913 -84.5657,112.633 l 3.4516,49.9301 12.0808,-51.0913 c 8.6292,-37.1573 27.6133,-60.3805 67.3074,-84.765 z"
       id="path9"
       style="fill:#7fff2a;stroke-width:1.41562" />
    <path
       d="m 3511.0461,3120.9624 c -18.9841,-29.0292 -36.2424,-58.0583 -36.2424,-65.0253 0,-31.3514 -107.0015,-121.9222 -170.8574,-143.9843 -144.9697,-48.769 -291.6654,-24.3844 -453.8936,76.6368 -48.3233,30.1903 -98.3724,51.0913 -120.8081,51.0913 -34.5167,-1.1612 -36.2425,-2.3224 -10.355,-11.6117 15.5325,-6.967 56.9524,-37.1572 91.4691,-69.6699 105.2756,-96.3766 243.3422,-137.0174 393.4895,-113.7941 151.8731,22.0622 250.2455,94.0543 322.7305,235.7164 43.1457,84.7651 34.5165,111.4718 -15.5326,40.6408 z"
       id="path10"
       style="fill:#7fff2a;stroke-width:1.41562" />
    <path
       d="m 3889.0032,3165.0867 c 0,-19.7399 43.1458,-80.1204 105.2757,-150.9515 41.42,-44.1242 65.5816,-83.6038 56.9524,-91.7319 -6.9033,-8.1282 -5.1775,-10.4505 5.1775,-6.967 22.4359,9.2892 70.7591,-67.3476 82.84,-133.5339 l 8.6291,-49.9301 -24.1617,58.0582 c -13.8066,32.5126 -25.8874,62.7029 -27.6132,68.5087 0,5.8058 -3.4517,8.1282 -8.6292,4.6446 -5.1775,-3.4834 -1.7258,-31.3513 8.6292,-62.7028 37.9683,-114.9553 53.5007,-234.5553 41.4199,-347.1882 -13.8067,-125.4057 -22.4358,-120.7611 -58.6782,26.7068 -31.065,130.0504 -43.1458,89.4097 -17.2584,-68.5088 12.0808,-83.6037 22.4359,-316.9978 24.1617,-568.9705 1.7258,-463.3046 3.4516,-456.3376 -82.84,-335.5765 -32.7907,47.6077 -36.2423,69.6698 -34.5165,261.2619 1.7258,123.0835 13.8066,261.2621 31.0649,335.5766 29.3392,138.1786 32.7908,183.4639 8.6291,128.8892 -22.4357,-49.93 -63.8557,-258.9396 -77.6623,-392.4735 -6.9034,-62.7029 -13.8067,-111.4718 -17.2583,-109.1495 -6.9034,4.6447 -65.5817,214.8155 -100.0983,356.4775 -20.71,89.4096 -24.1616,92.8932 -25.8875,40.6407 -3.4516,-88.2485 31.065,-250.8114 86.2916,-419.1803 58.6783,-181.1417 84.5657,-231.0718 144.9698,-292.6135 44.8716,-45.2854 44.8716,-48.7689 43.1458,-247.328 0,-111.4718 6.9033,-235.71642 15.5326,-277.51833 6.9033,-41.80191 12.0807,-76.63685 10.3549,-78.95918 -1.7258,-1.16116 -32.7908,24.38445 -67.3075,59.21939 -79.3882,77.79804 -157.0505,211.33202 -210.5513,362.28342 l -41.42,116.1164 10.355,-81.2815 c 29.3392,-250.8116 158.7765,-435.43675 358.9729,-514.39593 l 56.9525,-23.22329 -22.4359,71.9922 c -27.6132,83.60384 -63.8557,407.56872 -55.2266,483.04442 3.4517,44.1243 10.355,51.0913 37.9683,48.7689 27.6133,-3.4834 31.0649,1.1612 20.71,29.0292 -5.1775,17.4174 -18.9842,145.1455 -27.6133,282.1629 -17.2584,269.3901 -3.4516,490.0114 43.1458,737.3395 20.7099,101.0213 27.6133,197.3979 22.4358,296.0969 -10.355,171.8523 -41.42,240.361 -165.6798,349.5105 -44.8717,39.4795 -98.3724,88.2484 -119.0824,107.9883 -22.4358,19.7398 -39.6941,31.3514 -39.6941,27.868 z m 270.9555,-476.0775 c -5.1775,-8.1281 -8.6291,-2.3223 -8.6291,13.9339 0,16.2564 3.4516,22.0622 8.6291,15.0952 3.4517,-8.1282 3.4517,-22.0622 0,-29.0291 z"
       id="path11"
       style="fill:#7fff2a;stroke-width:1.41562" />
    <path
       d="m 3492.062,2945.6265 c -48.3233,-89.4096 -129.4373,-150.9514 -246.7939,-184.6251 -79.3882,-24.3845 -119.0824,-26.7068 -357.247,-27.868 -201.9223,-1.1611 -283.0364,-6.9669 -327.908,-19.7397 -58.6783,-18.5786 -55.2266,-18.5786 200.1965,-27.868 215.7289,-6.967 277.8588,-4.6446 369.3278,10.4504 231.2615,40.6408 365.8763,133.534 403.8446,283.3242 5.1775,19.7399 6.9033,37.1573 3.4516,37.1573 -3.4516,0 -22.4358,-31.3514 -44.8716,-70.8311 z"
       id="path12"
       style="fill:#7fff2a;stroke-width:1.41562" />
    <path
       d="m 1291.6271,2934.0149 c -94.9207,-47.6077 -113.9048,-62.7029 -51.7749,-41.8019 44.8716,15.0951 148.4215,78.9592 127.7115,77.798 -3.4517,0 -37.9683,-16.2563 -75.9366,-35.9961 z"
       id="path13"
       style="fill:#7fff2a;stroke-width:1.41562" />
    <path
       d="m 4028.7956,2289.5686 c 0,-12.7728 5.1774,-16.2563 10.3549,-6.967 5.1775,8.1282 3.4517,18.5786 -1.7258,22.0622 -5.1775,4.6446 -10.355,-2.3224 -8.6291,-15.0952 z"
       id="path14"
       style="fill:#7fff2a;stroke-width:1.41562" />
    <path
       d="m 3207.2999,1966.7649 c -189.8415,-103.3436 -288.2138,-176.497 -358.973,-268.2289 -50.0491,-63.8641 -55.2266,-78.9593 -55.2266,-179.9805 0,-97.5379 5.1775,-118.4388 50.0491,-183.4641 27.6134,-39.4795 53.5008,-69.6698 56.9525,-67.3475 5.1774,2.3224 -8.6292,46.4466 -29.3391,96.3767 -56.9525,139.3397 -51.775,217.1378 24.1616,325.126 55.2266,80.1203 88.0174,106.8271 274.4071,227.5882 115.6307,74.3145 207.0998,135.8562 201.9223,134.6952 -5.1774,0 -79.3883,-38.3185 -163.9539,-84.7651 z"
       id="path15"
       style="fill:#7fff2a;stroke-width:1.41562" />
    <path
       d="m 3580.0793,1936.5746 c -27.6132,-87.0873 -22.4357,-191.5921 15.5326,-354.1552 29.3391,-116.1164 32.7907,-159.0795 18.9841,-209.0095 -22.4358,-80.1204 -82.8398,-160.2407 -170.8573,-226.4272 l -70.759,-52.2523 43.1458,59.2194 c 46.5973,63.864 93.1948,213.6542 89.7431,289.1299 -1.7258,37.1573 -3.4516,39.4796 -8.6291,11.6117 -15.5325,-84.765 -65.5816,-214.8154 -110.4532,-290.2911 l -48.3233,-81.2815 -1.7258,81.2815 c -1.7259,45.2854 -12.0808,102.1824 -25.8874,127.728 -22.4359,45.2855 -22.4359,44.1243 -22.4359,-59.2193 0,-125.4058 -18.9841,-177.6582 -89.7432,-253.13398 -29.3392,-30.1902 -50.0491,-58.05816 -46.5974,-60.3805 12.0808,-8.12815 222.6322,118.43878 315.827,190.43098 105.2757,82.4427 153.599,139.3398 191.5673,227.5883 13.8067,32.5126 53.5008,88.2485 86.2915,124.2446 112.1792,124.2446 131.1633,212.4931 72.485,341.3823 -34.5166,77.798 -63.8557,103.3437 -32.7908,27.8679 39.6941,-91.7319 15.5324,-256.6172 -44.8716,-316.9979 -20.71,-19.7397 -22.4358,-17.4174 -13.8067,23.2234 6.9034,40.6407 5.1775,38.3183 -24.1616,-18.5786 l -31.065,-63.8641 -39.6941,183.4639 c -27.6133,121.9224 -37.9682,213.6543 -32.7907,270.5514 5.1774,47.6077 6.9033,85.9262 3.4516,85.9262 -1.7258,0 -12.0808,-26.7068 -22.4359,-58.0583 z"
       id="path16"
       style="fill:#7fff2a;stroke-width:1.41562" />
    <path
       d="m 3366.0764,1852.9708 c -6.9035,-24.3844 -31.0651,-70.8311 -55.2266,-105.6659 -50.0492,-76.6369 -74.2109,-168.3689 -65.5817,-246.167 3.4516,-31.3513 0,-78.9591 -8.6292,-104.5048 -17.2582,-45.2853 -17.2582,-45.2853 -18.9841,-9.2892 -1.7258,20.9009 -22.4357,73.1533 -46.5974,116.1164 -56.9525,101.0213 -51.775,181.1417 17.2583,271.7124 l 48.3232,62.7029 -53.5007,-40.6407 c -58.6783,-45.2854 -105.2757,-125.4058 -105.2757,-179.9805 0,-19.7398 18.9842,-75.4757 43.1458,-123.0834 58.6782,-112.633 69.0332,-198.5591 37.9683,-268.229 -13.8066,-31.3515 -22.4359,-55.7359 -18.9841,-55.7359 15.5324,0 96.6464,109.1494 129.4373,175.3359 18.9841,40.6407 82.8398,137.0173 138.0664,213.6542 56.9525,76.6369 96.6466,134.695 89.7433,127.728 -43.1458,-33.6737 -120.8082,-109.1494 -163.954,-161.4017 l -48.3233,-59.2195 v 77.7981 c 0,56.897 13.8067,107.9882 53.5008,185.7863 27.6134,58.0582 50.0491,119.5999 46.5975,135.8562 -5.1775,26.7068 -6.9033,24.3845 -18.9841,-12.7728 z"
       id="path17"
       style="fill:#7fff2a;stroke-width:1.41562" />
    <path
       d="m 2525.5964,1559.1962 c 0,-97.5378 34.5167,-167.2077 105.2758,-209.0096 31.065,-19.7398 29.3391,-15.0952 -8.6292,41.8019 -24.1616,34.8349 -50.0491,103.3436 -60.4041,153.2737 -8.6291,49.9301 -20.7099,94.0543 -25.8874,97.5379 -5.1776,4.6446 -10.3551,-33.6739 -10.3551,-83.6039 z"
       id="path18"
       style="fill:#7fff2a;stroke-width:1.41562" />
    <path
       d="m 2927.7152,1512.7496 c 63.8557,-110.3107 56.9524,-175.3358 -25.8875,-293.7746 -55.2266,-76.6369 -55.2266,-81.2815 -17.2583,-58.0583 75.9365,48.769 131.1631,125.4058 131.1631,182.3029 0,58.0583 -50.0491,170.6911 -79.3882,183.4639 -13.8066,4.6448 -15.5324,0 -8.6291,-13.9339 z"
       id="path19"
       style="fill:#7fff2a;stroke-width:1.41562" />
    <path
       d="m 3907.9873,1292.1283 c -5.1775,-74.3145 110.4532,-306.54736 131.1632,-264.7454 3.4517,6.967 -5.1775,29.029 -18.9842,48.7689 -15.5324,18.5786 -46.5973,77.798 -69.0332,131.2116 -24.1616,53.4135 -43.1458,91.7319 -43.1458,84.7649 z"
       id="path20"
       style="fill:#7fff2a;stroke-width:1.41562" />
    <path
       d="m 2684.3729,1216.6526 c 0,-16.2562 3.4517,-22.0621 8.6292,-13.9339 3.4516,6.967 3.4516,20.9009 0,29.0291 -5.1775,6.967 -8.6292,1.1612 -8.6292,-15.0952 z"
       id="path21"
       style="fill:#7fff2a;stroke-width:1.41562" />
    <path
       d="m 2670.5663,1042.4779 c 5.1775,-139.33968 6.9033,-150.95133 75.9365,-270.55126 74.2109,-132.37275 108.7274,-227.58824 105.2758,-297.2581 l -1.7259,-41.80193 -13.8066,34.83494 c -12.0808,30.19027 -13.8066,27.86795 -15.5324,-23.22328 -3.4517,-51.09125 -41.42,-167.20769 -77.6625,-232.2329 -10.355,-18.57863 -6.9033,-17.41747 22.4359,5.80582 48.3232,39.4796 82.8398,114.95529 105.2757,226.42708 20.7099,112.63295 8.6291,163.72418 -86.2916,361.12214 -60.4041,125.40581 -84.5657,199.72029 -110.4532,341.38229 -3.4517,22.0622 -5.1775,-24.3844 -3.4517,-104.5048 z"
       id="path22"
       style="fill:#7fff2a;stroke-width:1.41562" />
    <path
       d="m 3726.775,1106.342 c 13.8067,-123.08343 36.2425,-198.55912 75.9367,-253.13385 18.9841,-26.70679 31.0649,-38.31843 25.8874,-25.54561 -5.1775,11.61164 -25.8874,82.44266 -43.1458,156.75721 -44.8716,177.65815 -70.7591,231.07175 -58.6783,121.92225 z"
       id="path23"
       style="fill:#7fff2a;stroke-width:1.41562" />
    <path
       d="m 2946.6993,1064.5401 c 3.4517,-10.4505 24.1616,-54.5748 43.1458,-97.53787 27.6133,-58.05819 36.2424,-106.82709 34.5166,-190.43094 -1.7258,-95.21548 -3.4517,-104.50479 -17.2583,-65.02521 -25.8874,73.15337 -103.5499,226.42713 -148.4215,290.29112 -22.4358,31.3515 -36.2424,47.6077 -29.3391,34.8349 56.9524,-120.76107 165.6798,-442.40362 167.4056,-491.17253 0,-33.67377 1.7259,-59.21939 3.4517,-58.05823 3.4516,2.32233 15.5324,26.70679 31.065,54.57474 l 24.1616,51.09123 24.1616,-80.12034 c 12.0809,-44.12426 22.4358,-128.88926 24.1617,-189.26981 0,-101.02131 1.7258,-105.66597 20.7099,-63.86405 31.065,69.66987 25.8875,154.43487 -13.8066,255.45618 -27.6134,67.34754 -36.2425,119.59994 -34.5167,196.23679 5.1775,121.92227 -29.3391,236.87755 -93.1948,316.99782 -25.8875,30.1904 -41.42,46.4467 -36.2425,35.9962 z"
       id="path24"
       style="fill:#7fff2a;stroke-width:1.41562" />
    <path
       d="m 3569.7244,1005.3207 c -36.2424,-27.86793 -96.6465,-94.05433 -134.6148,-147.46789 -60.4041,-83.60384 -70.7591,-110.31063 -77.6625,-192.7533 -8.6291,-107.98829 17.2584,-178.81933 101.8241,-279.84064 55.2266,-65.02521 165.6798,-161.40185 148.4215,-128.88925 -58.6783,107.98829 -70.7591,174.17467 -72.4849,355.31632 0,178.81932 -1.7258,186.94748 -22.4359,127.72809 -12.0808,-35.9961 -18.9841,-118.43878 -17.2582,-192.7533 3.4516,-71.99219 0,-126.56692 -8.6292,-120.76111 -34.5166,23.2233 -81.1141,146.30673 -81.1141,215.9766 0,71.99219 60.4041,213.65425 103.5499,242.68337 10.355,6.96698 17.2584,20.90096 17.2584,31.35144 0,10.45046 25.8874,46.44658 58.6782,78.95915 32.7908,32.51272 56.9525,59.21942 53.5008,59.21942 -3.4518,0 -34.5167,-22.0621 -69.0333,-48.7689 z"
       id="path25"
       style="fill:#7fff2a;stroke-width:1.41562" />
    <path
       d="m 3690.5325,922.87802 c 13.8068,-147.46789 120.8083,-300.74159 310.6497,-443.56483 l 60.4041,-46.44658 -65.5816,69.66988 C 3856.2123,646.52087 3757.84,798.63342 3706.0651,943.77901 l -24.1617,69.66989 z"
       id="path26"
       style="fill:#7fff2a;stroke-width:1.41562" />
    <path
       d="m 2380.6267,424.73846 c -17.2584,-47.60774 -170.8573,-170.69117 -312.3755,-248.48919 -82.8399,-46.44658 -119.0824,-74.31452 -94.9208,-68.5087 77.6625,15.09514 196.7448,67.34754 264.0522,113.79412 l 65.5816,45.2854 -27.6132,-44.12424 c -15.5325,-25.54562 -51.775,-68.5087 -81.1142,-96.37664 l -55.2266,-51.091248 56.9525,22.062123 c 113.9048,44.124255 207.0997,168.368845 210.5514,279.840635 3.4517,67.34755 -8.6291,89.40967 -25.8874,47.60774 z"
       id="path27"
       style="fill:#7fff2a;stroke-width:1.41562" />
    <path
       d="m 2699.9055,398.03169 c -3.4518,-88.24851 -63.8559,-163.7242 -201.9223,-248.4892 l -119.0823,-73.153357 105.2757,34.834927 c 58.6782,19.7398 131.1631,55.7359 160.5023,80.12036 65.5816,53.41355 98.3723,149.7902 74.2107,217.13775 l -17.2583,47.60774 z"
       id="path28"
       style="fill:#7fff2a;stroke-width:1.41562" />
  </g>
</svg>
